HIERARCHY
ROOT root
{
	OFFSET 0.000000 0.000000 0.000000
	CHANNELS 6 Xposition Yposition Zposition Zrotation Yrotation Xrotation
	JOINT lhip
	{
		OFFSET 0.058581 -0.082280 -0.017664
		CHANNELS 3 Zrotation Yrotation Xrotation
		JOINT lknee
		{
			OFFSET 0.043451 -0.386469 0.008037
			CHANNELS 3 Zrotation Yrotation Xrotation
			JOINT lankle
			{
				OFFSET -0.014790 -0.426874 -0.037428
				CHANNELS 3 Zrotation Yrotation Xrotation
				JOINT ltoe
				{
					OFFSET 0.041054 -0.060286 0.122042
					CHANNELS 3 Zrotation Yrotation Xrotation
					End Site
					{
						OFFSET 0.000000 0.000000 0.000000
					}
				}
			}
		}
	}
	JOINT rhip
	{
		OFFSET -0.060310 -0.090513 -0.013543
		CHANNELS 3 Zrotation Yrotation Xrotation
		JOINT rknee
		{
			OFFSET -0.043257 -0.383688 -0.004843
			CHANNELS 3 Zrotation Yrotation Xrotation
			JOINT rankle
			{
				OFFSET 0.019056 -0.420046 -0.034562
				CHANNELS 3 Zrotation Yrotation Xrotation
				JOINT rtoe
				{
					OFFSET -0.034840 -0.062106 0.130323
					CHANNELS 3 Zrotation Yrotation Xrotation
					End Site
					{
						OFFSET 0.000000 0.000000 0.000000
					}
				}
			}
		}
	}
	JOINT lowerback
	{
		OFFSET 0.004439 0.124404 -0.038385
		CHANNELS 3 Zrotation Yrotation Xrotation
		JOINT upperback
		{
			OFFSET 0.004488 0.137956 0.026820
			CHANNELS 3 Zrotation Yrotation Xrotation
			JOINT chest
			{
				OFFSET -0.002265 0.056032 0.002855
				CHANNELS 3 Zrotation Yrotation Xrotation
				JOINT lowerneck
				{
					OFFSET -0.013390 0.211636 -0.033468
					CHANNELS 3 Zrotation Yrotation Xrotation
					JOINT upperneck
					{
						OFFSET 0.010113 0.088937 0.050410
						CHANNELS 3 Zrotation Yrotation Xrotation
						End Site
						{
							OFFSET 0.000000 0.000000 0.000000
						}
					}
				}
				JOINT lclavicle
				{
					OFFSET 0.071702 0.114000 -0.018898
					CHANNELS 3 Zrotation Yrotation Xrotation
					JOINT lshoulder
					{
						OFFSET 0.122921 0.045205 -0.019046
						CHANNELS 3 Zrotation Yrotation Xrotation
						JOINT lelbow
						{
							OFFSET 0.255332 -0.015649 -0.022946
							CHANNELS 3 Zrotation Yrotation Xrotation
							JOINT lwrist
							{
								OFFSET 0.265709 0.012698 -0.007375
								CHANNELS 3 Zrotation Yrotation Xrotation
								End Site
								{
									OFFSET 0.000000 0.000000 0.000000
								}
							}
						}
					}
				}
				JOINT rclavicle
				{
					OFFSET -0.082954 0.112472 -0.023707
					CHANNELS 3 Zrotation Yrotation Xrotation
					JOINT rshoulder
					{
						OFFSET -0.113228 0.046853 -0.008472
						CHANNELS 3 Zrotation Yrotation Xrotation
						JOINT relbow
						{
							OFFSET -0.260127 -0.014369 -0.031269
							CHANNELS 3 Zrotation Yrotation Xrotation
							JOINT rwrist
							{
								OFFSET -0.269108 0.006794 -0.006027
								CHANNELS 3 Zrotation Yrotation Xrotation
								End Site
								{
									OFFSET 0.000000 0.000000 0.000000
								}
							}
						}
					}
				}
			}
		}
	}
}
MOTION
Frames: 9
Frame Time: 0.033333
0.525899 0.243065 0.988484 92.936272 3.352458 94.813215 7.302662 3.297060 -2.201124 3.538236 -5.346922 -6.376411 -1.898638 9.142206 -3.791103 0.000000 -0.000000 0.000000 -1.196981 -2.409311 -4.285264 -1.406994 2.104519 1.195759 5.266208 -6.798542 -4.739128 0.000000 -0.000000 0.000000 -0.861858 1.585453 -2.110606 3.489581 -3.356750 3.526541 0.016200 1.368226 -6.542358 -0.098798 -10.060642 8.091642 6.270420 -11.490830 -5.485593 -22.059600 3.953104 -5.234606 -61.758266 -5.442954 24.141222 6.642813 -2.535656 8.105732 -10.724902 -6.928682 10.869874 22.726758 2.496248 -1.857513 53.668918 6.879701 16.254879 -3.738236 2.153128 -1.741449 8.180671 1.776731 -1.092337 
0.526265 0.243024 0.988370 92.907954 3.345958 94.684602 7.274453 3.305275 -2.002639 3.600473 -5.352186 -6.431605 -1.890706 9.251199 -3.822670 0.000000 -0.000000 0.000000 -1.188127 -2.493815 -4.096426 -1.456173 2.223233 1.132992 5.435113 -6.803468 -4.745641 0.000000 -0.000000 0.000000 -0.852587 1.621336 -1.771135 3.405444 -3.361458 2.916281 0.115267 1.392805 -6.112651 -0.043717 -10.022294 8.138339 6.192679 -11.364428 -5.516921 -21.973768 3.842364 -5.219743 -61.836269 -5.385040 23.937030 6.662306 -2.609715 8.336042 -10.646366 -6.976784 10.571197 22.748995 2.678337 -1.772136 53.691979 6.884553 16.125344 -3.667219 2.102960 -1.697468 8.118302 1.901332 -0.925370 
0.526615 0.242866 0.988249 92.934606 3.347562 94.780340 7.274047 3.275363 -2.087823 3.606473 -5.362044 -6.447505 -1.931715 9.290225 -3.823020 0.000000 -0.000000 0.000000 -1.170327 -2.449743 -4.135086 -1.453005 2.257759 1.041490 5.307184 -6.825301 -4.850961 0.000000 -0.000000 0.000000 -0.896283 1.557371 -1.821889 3.415795 -3.341097 2.781138 0.170557 1.404767 -6.032793 0.000972 -9.946353 8.136595 6.109987 -11.265123 -5.469984 -21.909223 3.885825 -5.264452 -61.898416 -5.327115 23.985359 6.635114 -2.747822 8.359097 -10.502254 -6.940670 10.324133 22.782667 2.710921 -1.738681 53.667384 6.972734 16.139511 -3.532828 2.081886 -1.773876 8.180640 1.852550 -1.219606 
0.527661 0.242504 0.987995 93.316472 3.358966 95.248354 7.341728 3.191329 -2.658637 3.532866 -5.498324 -6.362663 -2.100863 9.252929 -3.878129 0.000000 -0.000000 0.000000 -0.981754 -2.417283 -4.356568 -1.569925 2.236354 0.677322 4.603531 -6.911564 -5.167114 0.000000 -0.000000 0.000000 -1.079916 1.274533 -2.550217 3.510966 -3.465784 3.079013 0.258376 1.416845 -6.155503 0.109383 -9.871409 8.285745 6.077333 -11.230636 -5.579176 -21.776865 3.952431 -5.220489 -61.993433 -5.216712 24.187714 6.494148 -3.158358 8.254995 -10.292582 -6.752295 10.027057 22.800332 2.831962 -1.685112 53.486280 7.304291 16.067083 -2.956798 1.670199 -2.038493 8.577149 1.839585 -1.957163 
0.527787 0.242559 0.987893 93.318522 3.367166 95.288117 7.338457 3.186570 -2.689599 3.539096 -5.493837 -6.370519 -2.072165 9.245040 -3.870788 0.000000 -0.000000 0.000000 -0.952297 -2.405803 -4.414045 -1.595060 2.230638 0.715783 4.604635 -6.923326 -5.181272 0.000000 -0.000000 0.000000 -1.079289 1.272651 -2.532712 3.521208 -3.472368 3.027004 0.272673 1.434133 -6.154365 0.119189 -9.863299 8.289309 6.091193 -11.192314 -5.643321 -21.730293 3.936918 -5.245020 -62.125857 -5.232700 24.225913 6.554910 -3.209807 8.232111 -10.323556 -6.525881 9.993565 22.769873 2.842085 -1.690803 53.556829 7.322394 16.085630 -2.975559 1.668820 -2.051783 8.649817 1.765570 -2.002012 
0.528122 0.242771 0.987554 93.382711 3.394542 95.343166 7.355795 3.142907 -2.736092 3.557760 -5.549808 -6.394060 -2.061500 9.247265 -3.841015 0.000000 -0.000000 0.000000 -0.891188 -2.389872 -4.422471 -1.628313 2.249058 0.657516 4.622624 -7.037982 -5.149815 0.000000 -0.000000 0.000000 -1.080501 1.247009 -2.470519 3.551603 -3.523849 2.843303 0.345006 1.470795 -6.076113 0.060185 -9.879707 8.322691 6.078007 -11.073055 -5.662916 -21.637773 3.891146 -5.345329 -62.570456 -5.454282 24.411266 6.766458 -2.973994 8.707115 -10.642124 -5.915314 9.436226 22.663239 2.838192 -1.706382 53.727765 7.350763 16.243438 -3.049592 1.699821 -1.932663 8.807177 1.699316 -2.365466 
0.528551 0.242895 0.987396 93.406044 3.401630 95.345976 7.366611 3.144202 -2.690328 3.556169 -5.565635 -6.437899 -2.067987 9.229512 -3.883079 0.000000 -0.000000 0.000000 -0.876650 -2.401001 -4.382562 -1.650523 2.211185 0.623924 4.617765 -7.025275 -5.149717 0.000000 -0.000000 0.000000 -1.081699 1.236502 -2.407727 3.556104 -3.556046 2.809817 0.374926 1.472204 -6.093153 0.026321 -9.813972 8.319661 6.094538 -10.958793 -5.611215 -21.688989 3.826869 -5.308044 -62.568608 -5.522239 24.401308 6.727316 -2.847999 8.757891 -10.551352 -6.150280 9.299216 22.642175 2.886957 -1.688942 53.817321 7.369816 16.261038 -3.109261 1.715654 -1.922117 8.711755 1.803478 -2.505477 
0.528927 0.243027 0.987347 93.367851 3.402931 95.330418 7.370320 3.189323 -2.612834 3.530103 -5.571199 -6.490064 -2.054142 9.225411 -3.901803 0.000000 -0.000000 0.000000 -0.891158 -2.413932 -4.357980 -1.635291 2.220841 0.642059 4.642078 -6.989024 -5.157870 0.000000 -0.000000 0.000000 -1.067416 1.244126 -2.304851 3.564246 -3.538534 2.750475 0.381126 1.487631 -6.093041 0.028385 -9.795765 8.308650 6.055136 -10.842463 -5.594348 -21.768563 3.772565 -5.336512 -62.502888 -5.488318 24.400181 6.689730 -2.935611 8.630602 -10.443789 -6.042022 9.353413 22.624824 2.928519 -1.743642 53.837629 7.364951 16.276336 -3.097020 1.698342 -1.984510 8.709170 1.764430 -2.427399 
0.529327 0.243119 0.987355 93.333707 3.403397 95.316668 7.355924 3.230354 -2.521772 3.544673 -5.566316 -6.561259 -2.028977 9.215663 -3.892092 0.000000 -0.000000 0.000000 -0.895318 -2.431909 -4.296331 -1.649956 2.238513 0.598071 4.667846 -6.963661 -5.162896 0.000000 -0.000000 0.000000 -1.069879 1.275167 -2.285836 3.566999 -3.533686 2.756782 0.379290 1.496622 -6.083195 0.064900 -9.812199 8.313543 6.012357 -10.856970 -5.633869 -21.780011 3.736424 -5.362364 -62.476724 -5.459833 24.354503 6.691039 -3.055932 8.390395 -10.467890 -5.656009 9.519353 22.627367 2.950830 -1.798699 53.821709 7.385299 16.266712 -3.061677 1.630938 -2.047829 8.837511 1.654364 -2.271439 
